<svg xmlns="http://www.w3.org/2000/svg" viewBox="0 0 900 1100" role="img" aria-labelledby="title desc">
  <title id="title">Stylized baseball athlete artwork</title>
  <desc id="desc">Abstract heritage baseball illustration used for fictional Athlesite demo athlete Tyler Brooks.</desc>
  <rect width="900" height="1100" fill="#271612"/>
  <rect x="42" y="42" width="816" height="1016" rx="6" fill="none" stroke="#d8c39f" stroke-width="2" opacity=".7"/>
  <path d="M78 780H822" stroke="#d8c39f" stroke-width="2" opacity=".45"/>
  <text x="78" y="112" fill="#d8c39f" font-size="22" font-family="Georgia, serif" letter-spacing="6">SCOUTING FILE / 2027</text>
  <text x="78" y="188" fill="#fff1d6" font-size="88" font-family="Georgia, serif" font-weight="700">TYLER</text>
  <text x="78" y="272" fill="#fff1d6" font-size="88" font-family="Georgia, serif" font-weight="700">BROOKS</text>
  <g transform="translate(265 302)">
    <circle cx="170" cy="112" r="61" fill="#0f0c0a"/>
    <path d="M104 196C128 160 219 157 246 196L278 408H68Z" fill="#f2dfbd"/>
    <path d="M92 237L-9 348L22 386L128 295Z" fill="#f2dfbd"/>
    <path d="M245 232L359 123" stroke="#d8c39f" stroke-width="22" stroke-linecap="round"/>
    <path d="M95 404H154L126 656H63ZM186 405H245L298 642H238Z" fill="#f2dfbd"/>
    <text x="172" y="352" text-anchor="middle" fill="#7d2c1f" font-size="104" font-family="Arial, Helvetica, sans-serif" font-weight="800">24</text>
  </g>
  <g font-family="Arial, Helvetica, sans-serif">
    <text x="78" y="843" fill="#d8c39f" font-size="16" letter-spacing="3">EXIT VELO</text><text x="78" y="902" fill="#fff1d6" font-size="56" font-weight="700">94</text><text x="151" y="902" fill="#d8c39f" font-size="18">MPH</text>
    <text x="350" y="843" fill="#d8c39f" font-size="16" letter-spacing="3">60 YARD</text><text x="350" y="902" fill="#fff1d6" font-size="56" font-weight="700">6.8</text>
    <text x="620" y="843" fill="#d8c39f" font-size="16" letter-spacing="3">GPA</text><text x="620" y="902" fill="#fff1d6" font-size="56" font-weight="700">3.9</text>
  </g>
  <text x="78" y="1008" fill="#7d2c1f" font-size="22" font-family="Georgia, serif" letter-spacing="5">BASEBALL / SS / RHP</text>
</svg>
